<svg id="图层_1" data-name="图层 1" xmlns="http://www.w3.org/2000/svg" viewBox="0 0 70 60"><defs><style>.cls-1{fill:#dc343b;}.cls-2{fill:#64615d;}</style></defs><path class="cls-1" d="M13,4H11.43V7.13l.11,0a11.91,11.91,0,0,1,1.39-.24H13Z"/><path class="cls-1" d="M18.24,7.08V.29H16.66V6.84l.22,0c.39,0,.8.11,1.25.2Z"/><path class="cls-1" d="M15.62,2.12H14V6.77h.1c.46,0,.93,0,1.39,0h.09Z"/><path class="cls-1" d="M18.21,35.63a10,10,0,0,0-1.27,3.59,25.61,25.61,0,0,0-.29,4.44V45h0V60h1.58V45.81c0-.44,0-.9,0-1.36,0-2.52-.08-5.13,1-7.38l.16-.3.05-.1-1.15-1.14Z"/><path class="cls-1" d="M16.75,34l-.34-.35-.06.09a9.44,9.44,0,0,0-.92,1.55C14.14,38,14,41.05,14,43.72c0,.42,0,.84,0,1.25V58.16h1.58V44.9a32.53,32.53,0,0,1,.3-5.86,10.58,10.58,0,0,1,1.57-4.19l0-.06-.05,0Z"/><path class="cls-1" d="M14.74,31.7l-.07-.09-.07.09a11.9,11.9,0,0,0-1.53,2.44c-1.52,3.2-1.65,6.68-1.65,10.27V56.32H13V45c0-3.46,0-7,1.49-10.22h0a10.15,10.15,0,0,1,1.16-1.91l.05-.06-.05-.06C15.32,32.42,15,32.06,14.74,31.7Z"/><path class="cls-1" d="M20.52,9.05C15.17,7,9.1,8.05,5.41,11.76A12.4,12.4,0,0,0,2,19a16.25,16.25,0,0,0-.11,1.91,39.68,39.68,0,0,0,.27,4c.07.65.12,1.23.17,1.81a49.45,49.45,0,0,1-.06,6.67v0c0,.68-.08,1.38-.1,2.07-.2,4.94-.47,11.69,4.27,15.44A10.43,10.43,0,0,0,10,52.78l.12,0V51.16l-.06,0a9.06,9.06,0,0,1-2.7-1.47C3.3,46.43,3.52,40.53,3.71,35.79v-.1c0-.75.07-1.52.11-2.26h0a54.62,54.62,0,0,0,.1-6.14c0-.86-.13-1.72-.22-2.56a27.4,27.4,0,0,1-.21-5,10.87,10.87,0,0,1,3.19-6.93c3.57-3.47,9.86-4.15,14.62-1.59a11.28,11.28,0,0,1,5.09,14,12.8,12.8,0,0,1-1.91,3.23l-.05.06.05.06,1,1,.08.07.06-.08a14.15,14.15,0,0,0,2.23-3.74A12.65,12.65,0,0,0,28.78,21c0-.43,0-.85-.07-1.27A13,13,0,0,0,20.52,9.05Z"/><path class="cls-1" d="M18.74,11.2C14.86,10,9.35,10.59,6.4,14.63a10.29,10.29,0,0,0-1.86,6.46c0,1.23.12,2.47.23,3.66S5,26.94,5,28c0,1.82,0,3.66-.14,5.45v.19c0,.61-.06,1.25-.09,1.87l0,.58c-.18,4.37-.41,9.8,3.31,12.74A8,8,0,0,0,10,50l.13.05V48.33l-.05,0A6.73,6.73,0,0,1,9,47.63c-3.13-2.47-2.91-7.25-2.74-11.1v-.16l0-.71c0-.66.06-1.33.09-2,.06-1.31.13-2.8.15-4.25a44.7,44.7,0,0,0-.26-4.66v-.08c-.08-.83-.16-1.69-.2-2.54A9.87,9.87,0,0,1,7.39,16c1.84-2.89,6.31-4.88,11.3-3.12a8.86,8.86,0,0,1,5.11,4.7A8.35,8.35,0,0,1,24,24.17a10.6,10.6,0,0,1-1.31,2.27l0,.06,0,.06c.3.35.63.7,1,1.05l.08.08.06-.08a11.48,11.48,0,0,0,1.66-2.85A10,10,0,0,0,26.16,21c0-.33,0-.67-.05-1A10.45,10.45,0,0,0,18.74,11.2Z"/><path class="cls-1" d="M16.37,13.35c-3.39-.46-7.61.86-8.91,4.85A9.13,9.13,0,0,0,7.08,21c0,.88.09,1.74.16,2.5v.07a52.2,52.2,0,0,1,.35,6.12c0,1.39-.09,2.79-.15,4.15,0,.58,0,1.16-.08,1.74a48.14,48.14,0,0,0,0,5.51c.13,1.79.51,4.34,2.32,5.76l.33.24.14.09V45.83c0-.25,0-.5,0-.76v0L10.07,45l-.14-.19c-1-1.52-1-3.68-1-5.41v0c0-.31,0-.61,0-.87,0-1.57.1-3.16.17-4.7v-.09c0-.77.07-1.57.1-2.36a42.24,42.24,0,0,0-.05-5.13c0-.57-.11-1.15-.17-1.71v0a28.31,28.31,0,0,1-.24-3.68,5.91,5.91,0,0,1,1.38-4,6.18,6.18,0,0,1,4.39-1.92c3.36-.19,7.12,1.7,7.48,5.57A6.07,6.07,0,0,1,21,24.24l0,0,0,0a14.15,14.15,0,0,0,.86,1.26l.08.1.07-.1A7.89,7.89,0,0,0,23.54,21a5.85,5.85,0,0,0,0-.73A8,8,0,0,0,16.37,13.35Z"/><path class="cls-1" d="M20.44,28.37c1.16,1.34,2.45,2.59,3.7,3.8l.07.07,1,.93C27,34.93,29,36.92,29.65,39.63a9.71,9.71,0,0,1-9.62,12h-.51V53.2h.31a12,12,0,0,0,10-5.39A11.51,11.51,0,0,0,30.9,38.3c-1-2.79-3.14-4.86-5.23-6.86l-1-1-.31-.31a34.2,34.2,0,0,1-3.73-4.06,11.45,11.45,0,0,1-2.24-5.83c-.1-.93-.15-2-.18-3.33V16.9l0,0a6.34,6.34,0,0,0-1.43-.54l-.12,0v.11c0,1.65.08,2.89.19,4A14,14,0,0,0,20.44,28.37Z"/><path class="cls-1" d="M14.9,29.79a41.3,41.3,0,0,0,4.89,5.44l2.09,2.05c1.52,1.48,3.24,3.15,2.66,5.67-.67,2.83-3.52,3.35-4.72,3.43h-.3V48h.31c2.92-.17,5.18-1.64,6-3.93s.3-4.53-1.65-6.65c-1-1-2-2-3-3A40.74,40.74,0,0,1,16.29,29a16.78,16.78,0,0,1-3.09-8.21c-.12-1.24-.19-2.56-.21-4.28V16.4l-.12,0a4.64,4.64,0,0,0-1.41.76l0,0v.05c0,1.44.1,2.58.2,3.69A18.39,18.39,0,0,0,14.9,29.79Z"/><path class="cls-1" d="M14.77,23.71C16,27.82,19,30.83,22,33.74l.56.55.71.68A21.93,21.93,0,0,1,26,38a7.06,7.06,0,0,1,.5,7.1c-1.27,2.7-4.3,3.79-6.72,3.91h-.3v1.58h.31a9.32,9.32,0,0,0,7.79-4.16,9.18,9.18,0,0,0,1.16-5.83c-.4-2.81-2.4-4.77-4.34-6.68l0,0-.83-.81-.14-.13c-1.15-1.12-2.34-2.27-3.43-3.49a15.37,15.37,0,0,1-4.21-8.9c-.12-1.21-.18-2.54-.19-4.31v-.09h-.08a7.46,7.46,0,0,0-1.42,0H14v.08c0,1.22.05,2.82.21,4.45A15.92,15.92,0,0,0,14.77,23.71Z"/><path class="cls-2" d="M35.63,35.91l-.67,0a6,6,0,0,1-.69-.1V31.84a3.88,3.88,0,0,1,.62-.08l.62,0a4,4,0,0,1,.72.06,1.54,1.54,0,0,1,.56.19.94.94,0,0,1,.5.9.88.88,0,0,1-.47.77,1,1,0,0,1,.53.4,1.2,1.2,0,0,1,.14.57,1.06,1.06,0,0,1-.47,1A2.4,2.4,0,0,1,35.63,35.91Zm-.46-2.53h.44a1.27,1.27,0,0,0,.61-.11.38.38,0,0,0,.18-.35.37.37,0,0,0-.18-.35,1.19,1.19,0,0,0-.56-.1h-.25l-.24,0Zm0,.7v1.05l.22,0h.25a1.76,1.76,0,0,0,.67-.11.44.44,0,0,0,.25-.44.42.42,0,0,0-.21-.4,1.24,1.24,0,0,0-.61-.12Z"/><path class="cls-2" d="M40.58,35.07v.78H37.85V31.78h.92v3.29Z"/><path class="cls-2" d="M44.62,33.81a2.56,2.56,0,0,1-.16.92,1.84,1.84,0,0,1-.43.67,1.7,1.7,0,0,1-.64.4,2.36,2.36,0,0,1-.8.14,2.3,2.3,0,0,1-.79-.14,1.82,1.82,0,0,1-.65-.4,1.84,1.84,0,0,1-.43-.67,2.36,2.36,0,0,1-.16-.92,2.4,2.4,0,0,1,.16-.92,2,2,0,0,1,.45-.67,1.78,1.78,0,0,1,.64-.4,2.27,2.27,0,0,1,1.57,0,1.78,1.78,0,0,1,.64.4,2,2,0,0,1,.44.67A2.6,2.6,0,0,1,44.62,33.81Zm-3.12,0a1.8,1.8,0,0,0,.08.54,1.38,1.38,0,0,0,.21.42,1,1,0,0,0,.34.27,1.08,1.08,0,0,0,.46.09A1.06,1.06,0,0,0,43,35a1,1,0,0,0,.34-.27,1.2,1.2,0,0,0,.22-.42,2.12,2.12,0,0,0,0-1.08,1.2,1.2,0,0,0-.22-.42,1,1,0,0,0-.34-.27,1.06,1.06,0,0,0-.45-.09,1,1,0,0,0-.46.1.82.82,0,0,0-.34.27,1.22,1.22,0,0,0-.21.41A1.91,1.91,0,0,0,41.5,33.81Z"/><path class="cls-2" d="M46.07,35.15a1.55,1.55,0,0,0,.33,0,.53.53,0,0,0,.2-.09.26.26,0,0,0,.1-.13.47.47,0,0,0,0-.17.4.4,0,0,0-.18-.33,3.22,3.22,0,0,0-.65-.29,3.33,3.33,0,0,1-.4-.16,1.48,1.48,0,0,1-.36-.23,1,1,0,0,1-.36-.81,1.19,1.19,0,0,1,.11-.51,1.14,1.14,0,0,1,.3-.39,1.48,1.48,0,0,1,.47-.24,2,2,0,0,1,.62-.09,2.45,2.45,0,0,1,.71.09,2.16,2.16,0,0,1,.5.2l-.27.72a2.72,2.72,0,0,0-.38-.16,1.8,1.8,0,0,0-.5-.06.9.9,0,0,0-.47.09.3.3,0,0,0-.15.28.35.35,0,0,0,.05.18.44.44,0,0,0,.16.14.9.9,0,0,0,.22.11l.28.11c.21.08.39.15.55.23a1.49,1.49,0,0,1,.39.27.86.86,0,0,1,.23.36,1.22,1.22,0,0,1,.08.5,1,1,0,0,1-.4.88,1.94,1.94,0,0,1-1.21.32,2.33,2.33,0,0,1-.48,0,1.91,1.91,0,0,1-.39-.08,1.63,1.63,0,0,1-.29-.1.75.75,0,0,1-.2-.1L45,34.9a2.51,2.51,0,0,0,.45.17A2.1,2.1,0,0,0,46.07,35.15Z"/><path class="cls-2" d="M49.09,35.15a1.39,1.39,0,0,0,.32,0,.51.51,0,0,0,.21-.09.26.26,0,0,0,.1-.13.47.47,0,0,0,0-.17.39.39,0,0,0-.19-.33,2.85,2.85,0,0,0-.64-.29,2.78,2.78,0,0,1-.4-.16,1.31,1.31,0,0,1-.36-.23,1,1,0,0,1-.36-.81,1.19,1.19,0,0,1,.11-.51,1.14,1.14,0,0,1,.3-.39,1.48,1.48,0,0,1,.47-.24,2,2,0,0,1,.62-.09,2.5,2.5,0,0,1,.71.09,2.16,2.16,0,0,1,.5.2l-.27.72a2.72,2.72,0,0,0-.38-.16,1.85,1.85,0,0,0-.5-.06.9.9,0,0,0-.47.09.3.3,0,0,0-.15.28.35.35,0,0,0,0,.18.5.5,0,0,0,.15.14,1.23,1.23,0,0,0,.23.11l.28.11c.21.08.39.15.55.23a1.49,1.49,0,0,1,.39.27.86.86,0,0,1,.23.36,1.41,1.41,0,0,1,.08.5,1,1,0,0,1-.4.88,1.94,1.94,0,0,1-1.21.32,2.33,2.33,0,0,1-.48,0,1.91,1.91,0,0,1-.39-.08,1.63,1.63,0,0,1-.29-.1.75.75,0,0,1-.2-.1L48,34.9a2.51,2.51,0,0,0,.45.17A2.1,2.1,0,0,0,49.09,35.15Z"/><path class="cls-2" d="M54.9,33.81a2.56,2.56,0,0,1-.16.92,1.84,1.84,0,0,1-.43.67,1.7,1.7,0,0,1-.64.4,2.36,2.36,0,0,1-.8.14,2.3,2.3,0,0,1-.79-.14,1.82,1.82,0,0,1-.65-.4,1.84,1.84,0,0,1-.43-.67,2.36,2.36,0,0,1-.16-.92,2.4,2.4,0,0,1,.16-.92,2,2,0,0,1,.45-.67,1.78,1.78,0,0,1,.64-.4,2.27,2.27,0,0,1,1.57,0,1.78,1.78,0,0,1,.64.4,2,2,0,0,1,.44.67A2.6,2.6,0,0,1,54.9,33.81Zm-3.12,0a1.8,1.8,0,0,0,.08.54,1.38,1.38,0,0,0,.21.42,1,1,0,0,0,.34.27,1.08,1.08,0,0,0,.46.09,1.06,1.06,0,0,0,.45-.09,1,1,0,0,0,.34-.27,1.2,1.2,0,0,0,.22-.42,2.12,2.12,0,0,0,0-1.08,1.2,1.2,0,0,0-.22-.42,1,1,0,0,0-.34-.27,1.06,1.06,0,0,0-.45-.09,1,1,0,0,0-.46.1.82.82,0,0,0-.34.27,1.22,1.22,0,0,0-.21.41A1.91,1.91,0,0,0,51.78,33.81Z"/><path class="cls-2" d="M56.34,31.78q.1.2.24.48c.1.19.19.39.29.61l.3.68.28.66c.08-.21.18-.42.27-.66l.3-.68.29-.61c.09-.19.18-.35.25-.48h.83c0,.27.08.57.11.91s.06.68.09,1,0,.73.07,1.09,0,.71.06,1h-.9c0-.39,0-.82,0-1.29s-.05-.94-.08-1.41c-.08.16-.15.35-.24.54s-.17.41-.26.6-.16.4-.24.58-.15.34-.2.47h-.64c-.06-.13-.13-.29-.2-.47l-.25-.58-.26-.6-.23-.54q-.06.7-.09,1.41c0,.47,0,.9,0,1.29h-.89c0-.32,0-.66,0-1s.05-.72.07-1.09.06-.71.09-1,.07-.64.11-.91Z"/><path class="cls-2" d="M60.17,31.78h.92v4.07h-.92Z"/><path class="cls-2" d="M64.4,35.85c-.27-.46-.55-.92-.86-1.38a15.51,15.51,0,0,0-1-1.29v2.67h-.91V31.78h.75c.13.13.27.29.43.47l.48.61q.24.31.48.66l.46.66v-2.4h.91v4.07Z"/><path class="cls-2" d="M67.71,32.48a1.09,1.09,0,0,0-.92.36,1.46,1.46,0,0,0-.29,1,1.93,1.93,0,0,0,.07.55,1.38,1.38,0,0,0,.21.42.88.88,0,0,0,.36.27,1.07,1.07,0,0,0,.49.1h.26l.19,0V33.7H69v2a4.13,4.13,0,0,1-.53.14,4.56,4.56,0,0,1-.9.07,2.41,2.41,0,0,1-.83-.14,1.85,1.85,0,0,1-.64-.41,1.8,1.8,0,0,1-.41-.67,2.5,2.5,0,0,1-.14-.9,2.29,2.29,0,0,1,.16-.9,1.84,1.84,0,0,1,.43-.67,2,2,0,0,1,.65-.42,2.36,2.36,0,0,1,.8-.14,4.07,4.07,0,0,1,.52,0l.4.09.28.1.15.08-.26.74a2.24,2.24,0,0,0-.44-.17A1.78,1.78,0,0,0,67.71,32.48Z"/><path class="cls-2" d="M34.37,40.57a2.43,2.43,0,0,1,.13-.76,1.79,1.79,0,0,1,.36-.63,1.69,1.69,0,0,1,.58-.44,1.9,1.9,0,0,1,.78-.16,2.72,2.72,0,0,1,.42,0,2.53,2.53,0,0,1,.36.12l-.26.57a1.23,1.23,0,0,0-.23-.08,1,1,0,0,0-.32,0,.93.93,0,0,0-.45.1,1.06,1.06,0,0,0-.35.28,1.4,1.4,0,0,0-.22.42,1.7,1.7,0,0,0-.07.51,1.2,1.2,0,0,0,0,.28.61.61,0,0,0,.11.23.38.38,0,0,0,.2.14.73.73,0,0,0,.32.06,1.27,1.27,0,0,0,.39-.06,1.43,1.43,0,0,0,.28-.1l.06.58a1.63,1.63,0,0,1-.36.13,2,2,0,0,1-.5.06,1.34,1.34,0,0,1-.56-.1,1,1,0,0,1-.62-.66A1.53,1.53,0,0,1,34.37,40.57Z"/><path class="cls-2" d="M38.11,41.8a2,2,0,0,1-.47-.07.85.85,0,0,1-.3-.18.59.59,0,0,1-.17-.27,1.14,1.14,0,0,1-.05-.33,1.9,1.9,0,0,1,.05-.4c0-.14.06-.28.09-.41l.68-2.85.75-.12c-.13.52-.25,1-.37,1.53s-.25,1-.37,1.54a2.17,2.17,0,0,1-.07.24,1,1,0,0,0,0,.24v.19a.34.34,0,0,0,0,.14.27.27,0,0,0,.13.1.7.7,0,0,0,.23.06Z"/><path class="cls-2" d="M41.83,38.66l-.43,1.83a2.56,2.56,0,0,0,0,.27,2.44,2.44,0,0,0,0,.27,2,2,0,0,0,0,.34,1,1,0,0,0,.09.32l-.64.09-.06-.14s0-.11,0-.16a2.39,2.39,0,0,1-.37.23,1.12,1.12,0,0,1-.5.1,1.16,1.16,0,0,1-.44-.07.81.81,0,0,1-.3-.21.71.71,0,0,1-.16-.31,1.2,1.2,0,0,1,0-.38,2.26,2.26,0,0,1,.07-.56l.38-1.62h.72l-.39,1.6a2.11,2.11,0,0,0-.07.5.55.55,0,0,0,0,.18.35.35,0,0,0,.06.14.4.4,0,0,0,.12.1.56.56,0,0,0,.2,0,.67.67,0,0,0,.35-.08,1.08,1.08,0,0,0,.28-.21,3.28,3.28,0,0,1,.08-.52l.41-1.74Z"/><path class="cls-2" d="M44,38.59a1.09,1.09,0,0,1,.47.09,1,1,0,0,1,.33.25,1.18,1.18,0,0,1,.19.37,1.78,1.78,0,0,1,.07.47,2.19,2.19,0,0,1-.14.77,2,2,0,0,1-1.05,1.11,2.06,2.06,0,0,1-.84.16h-.19l-.26,0-.29-.07a1.08,1.08,0,0,1-.27-.1l1-4.32.75-.12-.38,1.58.27-.11A1.06,1.06,0,0,1,44,38.59Zm-.88,2.62a1,1,0,0,0,.5-.11,1.3,1.3,0,0,0,.39-.31,1.73,1.73,0,0,0,.25-.44,1.53,1.53,0,0,0,.08-.52,1,1,0,0,0,0-.25.4.4,0,0,0-.08-.2.36.36,0,0,0-.16-.14.62.62,0,0,0-.25-.05,1.11,1.11,0,0,0-.57.19l-.43,1.8.12,0Z"/><path class="cls-1" d="M34.61,53.17v-7h4.68V47.5H36.18V49H39v1.32H36.18v2.89Z"/><path class="cls-1" d="M41.59,46.33a.82.82,0,0,1-.27.65.95.95,0,0,1-1.26,0,.92.92,0,0,1,0-1.3.95.95,0,0,1,1.26,0A.82.82,0,0,1,41.59,46.33Zm-.14,6.84H39.94V47.86h1.51Z"/><path class="cls-1" d="M47,52.5a2.55,2.55,0,0,1-.66,1.93,2.86,2.86,0,0,1-2,.63,6.35,6.35,0,0,1-1-.08,5.92,5.92,0,0,1-.9-.23l.26-1.26a4.63,4.63,0,0,0,.75.22,3.94,3.94,0,0,0,.88.08,1.21,1.21,0,0,0,.91-.28,1,1,0,0,0,.27-.73v-.19a2.27,2.27,0,0,1-.5.17,2.48,2.48,0,0,1-.56.05,2.12,2.12,0,0,1-1.68-.65,2.62,2.62,0,0,1-.59-1.82,3,3,0,0,1,.18-1.06,2.28,2.28,0,0,1,.53-.82,2.31,2.31,0,0,1,.85-.53,3.17,3.17,0,0,1,1.14-.19,5.25,5.25,0,0,1,.56,0l.57.06.54.1L47,48Zm-3.3-2.16q0,1.26,1,1.26a1.56,1.56,0,0,0,.44-.06,1.51,1.51,0,0,0,.34-.14V49l-.26,0-.36,0a1,1,0,0,0-.88.4A1.58,1.58,0,0,0,43.7,50.34Z"/><path class="cls-1" d="M48,53.17V45.58l1.5-.24v2.54l.39-.09a2.4,2.4,0,0,1,.46,0,2.78,2.78,0,0,1,1.07.18,1.69,1.69,0,0,1,.69.5,1.91,1.91,0,0,1,.36.76,4.37,4.37,0,0,1,.1,1v3H51.1V50.35a2.18,2.18,0,0,0-.18-1,.77.77,0,0,0-.7-.3,1.45,1.45,0,0,0-.37,0l-.32.07v4Z"/><path class="cls-1" d="M53.52,46.54,55,46.3v1.56h1.81v1.25H55V51a1.5,1.5,0,0,0,.17.76.72.72,0,0,0,.67.28,2.92,2.92,0,0,0,.5-.05,3.23,3.23,0,0,0,.47-.12L57,53a6.34,6.34,0,0,1-.61.19,3.69,3.69,0,0,1-.81.08,2.71,2.71,0,0,1-1-.17,1.57,1.57,0,0,1-.65-.46,1.85,1.85,0,0,1-.34-.72,4.62,4.62,0,0,1-.09-.94Z"/><path class="cls-1" d="M57.31,50.55a3.11,3.11,0,0,1,.22-1.23,2.48,2.48,0,0,1,.57-.88,2.22,2.22,0,0,1,.81-.54,2.53,2.53,0,0,1,.94-.18,2.37,2.37,0,0,1,1.79.69,2.88,2.88,0,0,1,.65,2c0,.09,0,.19,0,.29s0,.2,0,.28H58.85a1,1,0,0,0,.44.73,1.65,1.65,0,0,0,1,.28,4.47,4.47,0,0,0,.82-.08,3.48,3.48,0,0,0,.65-.18L62,53a2.2,2.2,0,0,1-.32.12l-.45.1-.53.08-.57,0a3.35,3.35,0,0,1-1.24-.21,2.41,2.41,0,0,1-.88-.58,2.5,2.5,0,0,1-.52-.88A3.42,3.42,0,0,1,57.31,50.55ZM60.84,50a1.51,1.51,0,0,0-.07-.37.87.87,0,0,0-.17-.33.88.88,0,0,0-.73-.32.94.94,0,0,0-.43.09.87.87,0,0,0-.31.22,1.06,1.06,0,0,0-.18.33,1.78,1.78,0,0,0-.1.38Z"/><path class="cls-1" d="M66.27,49.19l-.47-.1a2.74,2.74,0,0,0-.59-.06l-.33,0a1.41,1.41,0,0,0-.3,0v4.06h-1.5v-5a6.56,6.56,0,0,1,1-.27,5.13,5.13,0,0,1,1.22-.13l.3,0,.34,0a2,2,0,0,1,.34.06,1.48,1.48,0,0,1,.29.08Z"/></svg>